#!OML:ASF H:\Terrain\Patient Classification 1\Walking\liu\liu.ASF
:FULLY-SPECIFIED
:DEGREES
404
root 10.649408 18.567781 22.479490 7.192449 -1.768492 -8.454226
lowerback -9.013675 3.590994 3.692942
upperback 0.290685 4.208446 4.532396
thorax 5.289405 2.118160 3.167879
lowerneck -21.246830 -6.742736 -14.735600
upperneck 23.337271 -8.612362 14.380520
head 12.263459 -3.471116 6.408193
rclavicle 0.000000 -0.000000
rhumerus -29.712212 16.575241 -93.315201
rradius 43.441528
rwrist -19.672070
rhand -33.286221 -23.143890
rfingers 7.837522
rthumb -3.925614 -56.088669
lclavicle 0.000000 -0.000000
lhumerus -58.809853 -10.198750 106.007332
lradius 29.813190
lwrist 9.057378
lhand -11.397981 -28.891390
lfingers 7.837522
lthumb 17.198719 3.435630
rfemur 19.321501 6.492805 36.602718
rtibia -0.000000
rfoot -8.542567 7.643911
rtoes -11.299311
lfemur -47.415722 -3.834138 -9.557295
ltibia 23.163252
lfoot -17.682610 14.880690
ltoes -13.744610
405
root 10.667987 18.546110 22.671001 7.329564 -1.799974 -8.306430
lowerback -9.394022 3.614204 3.487451
upperback 0.274685 4.241765 4.434012
thorax 5.478715 2.130018 3.209173
lowerneck -21.014179 -6.675768 -14.782790
upperneck 23.147852 -8.556207 14.545080
head 12.149720 -3.439348 6.483664
rclavicle 0.000000 0.000000
rhumerus -30.036711 16.600319 -93.595589
rradius 43.113731
rwrist -19.676031
rhand -32.883839 -24.140049
rfingers 7.837522
rthumb -3.537028 -57.091103
lclavicle 0.000000 0.000000
lhumerus -58.784771 -10.128977 105.882042
lradius 29.501450
lwrist 8.592177
lhand -8.237999 -22.902769
lfingers 7.837522
lthumb 20.240440 9.161922
rfemur 19.902960 6.461686 36.350269
rtibia -0.000000
rfoot -8.475313 7.698988
rtoes -10.980223
lfemur -47.407143 -2.640814 -10.655470
ltibia 23.906080
lfoot -17.103130 13.618000
ltoes -13.289650
406
root 10.690229 18.504200 22.855030 7.366150 -1.732962 -8.442842
lowerback -9.423128 3.606504 3.592006
upperback 0.152758 4.224462 4.445144
thorax 5.373874 2.123770 3.156274
lowerneck -20.767561 -6.718811 -14.889270
upperneck 23.098351 -8.606576 14.525280
head 12.095600 -3.482160 6.485347
rclavicle 0.000000 0.000000
rhumerus -30.517300 16.688210 -93.941208
rradius 42.692101
rwrist -19.937500
rhand -33.038280 -23.761869
rfingers 7.837522
rthumb -3.686166 -56.710609
lclavicle 0.000000 0.000000
lhumerus -59.046352 -9.871235 105.774353
lradius 29.491110
lwrist 7.985890
lhand -9.196044 -25.424850
lfingers 7.837522
lthumb 19.318642 6.724531
rfemur 20.616421 6.332205 36.453999
rtibia -0.000000
rfoot -8.237329 7.636684
rtoes -13.311541
lfemur -47.398121 -1.622269 -11.329451
ltibia 24.704458
lfoot -16.467110 12.283260
ltoes -14.416600
407
root 10.719543 18.473181 23.035542 7.422767 -1.537481 -8.727213
lowerback -9.271417 3.632805 4.040663
upperback 0.020690 4.233603 4.379265
thorax 5.184685 2.138950 2.822369
lowerneck -21.009010 -6.839789 -14.842850
upperneck 23.330450 -8.783027 14.509990
head 12.253670 -3.551526 6.449168
rclavicle -0.000000 -0.000000
rhumerus -30.946739 16.205420 -94.234360
rradius 42.357483
rwrist -19.705399
rhand -33.153122 -22.698830
rfingers 7.837522
rthumb -3.797079 -55.645813
lclavicle -0.000000 -0.000000
lhumerus -59.252487 -9.875481 105.653458
lradius 29.487700
lwrist 7.435648
lhand -7.430489 -22.926310
lfingers 7.837522
lthumb 21.017040 9.063406
rfemur 21.209320 6.106826 36.681152
rtibia -0.000000
rfoot -7.804225 7.603420
rtoes -16.231491
lfemur -47.369083 -0.941037 -11.663520
ltibia 25.509439
lfoot -15.814370 11.134200
ltoes -14.831849
